<svg width="128" height="129" viewBox="0 0 128 129" fill="none" xmlns="http://www.w3.org/2000/svg">
<path d="M99.5405 93.3786C99.5405 84.0856 95.8487 75.1732 89.2773 68.6021C82.706 62.031 73.7933 58.3394 64.4999 58.3394C55.2066 58.3394 46.2939 62.031 39.7226 68.6021C33.1512 75.1732 29.4594 84.0856 29.4594 93.3785L64.4999 93.3786H99.5405Z" fill="#D9D9D9"/>
<path d="M62.5434 40.553C62.5434 49.3938 56.9689 56.5607 50.0925 56.5607C43.216 56.5607 37.6415 49.3938 37.6415 40.553C37.6415 31.7121 43.216 24.5452 50.0925 24.5452C56.9689 24.5452 62.5434 31.7121 62.5434 40.553Z" fill="#D9D9D9"/>
<path d="M36.2887 56.7885C38.8711 63.8834 36.6235 71.2149 31.2685 73.1638C25.9135 75.1128 19.4789 70.9413 16.8965 63.8464C14.3141 56.7516 16.5617 49.4201 21.9167 47.4711C27.2717 45.5222 33.7062 49.6937 36.2887 56.7885Z" fill="#D9D9D9"/>
<path d="M92.3706 56.4504C94.8159 49.7321 100.928 45.7889 106.022 47.643C111.117 49.497 113.264 56.4463 110.819 63.1646C108.373 69.8829 102.261 73.8261 97.1669 71.972C92.0726 70.1179 89.9252 63.1687 92.3706 56.4504Z" fill="#D9D9D9"/>
<ellipse cx="78.5519" cy="40.553" rx="12.4509" ry="16.0078" fill="#D9D9D9"/>
<ellipse cx="49.0252" cy="93.5564" rx="19.5658" ry="2.84582" fill="#D9D9D9"/>
<ellipse cx="79.9748" cy="93.5564" rx="19.5658" ry="2.84582" fill="#D9D9D9"/>
<path d="M65.3203 0.00488281C74.6285 0.122746 83.4539 2.24383 91.3857 5.95605C90.1653 7.1639 89.0954 8.52354 88.2061 10.0039C80.9596 6.7881 72.9388 5.00002 64.5 5C32.1914 5 6.00018 31.1902 6 63.4971C6 95.8041 32.1913 121.995 64.5 121.995C96.8087 121.995 123 95.8041 123 63.4971C123 54.3019 120.877 45.6027 117.097 37.8613C118.542 36.92 119.861 35.802 121.025 34.5381C125.483 43.2213 128 53.0652 128 63.4971L127.994 64.3184C127.555 99.0086 99.2958 126.995 64.5 126.995L63.6787 126.989C28.9872 126.55 1 98.2916 1 63.4971C1.00018 28.4286 29.4301 0 64.5 0L65.3203 0.00488281Z" fill="white"/>
</svg>
